<svg xmlns="http://www.w3.org/2000/svg" version="1.1" xmlns:xlink="http://www.w3.org/1999/xlink" width="512"
     height="512" x="0" y="0" viewBox="0 0 64 64" style="enable-background:new 0 0 512 512" xml:space="preserve"
     class=""><g transform="matrix(-1.8369701987210297e-16,1,-1,-1.8369701987210297e-16,63.99999761581421,-4.768371404395566e-7)"><g id="Arrow-18"><path d="m46.860363 31.2841873-25.4560528-24.828124c-.3920898-.3818359-1.0180664-.3789063-1.4052734.0087891l-2.8681641 2.8681641c-.1894531.1889648-.2949219.4462891-.2929688.7138672.0019531.2680664.1108398.5234375.3027344.7099609l21.8486309 21.2431641-21.8481426 21.243163c-.1918945.1865234-.3007813.4418945-.3027344.7099609-.0019531.2675781.1035156.5249023.2929688.7138672l2.8681641 2.8681641c.1948242.1953125.4511719.2929688.7070313.2929688.2519531 0 .5039063-.0947266.6982422-.2841797l25.4555645-24.828125c.1933594-.1879883.3017578-.4462891.3017578-.7158203s-.1083985-.5278321-.3017579-.7158204z" fill="#000000" data-original="#000000" class=""></path></g></g></svg>
