<svg xmlns="http://www.w3.org/2000/svg" version="1.1" xmlns:xlink="http://www.w3.org/1999/xlink"  width="512" height="512" x="0" y="0" viewBox="0 0 512 512" style="enable-background:new 0 0 512 512" xml:space="preserve" class=""><g><path d="m501.849 435.052-92.638-92.637a34.794 34.794 0 0 0 -49.15 0l-.338.338-28.247-28.248c65.5-74.287 62.773-188.058-8.209-259.041-73.834-73.833-193.969-73.833-267.8 0s-73.833 193.97 0 267.8a189.585 189.585 0 0 0 259.041 8.209l28.248 28.248-.338.337a34.819 34.819 0 0 0 0 49.15l92.637 92.638a34.795 34.795 0 0 0 49.151 0l17.642-17.646a34.8 34.8 0 0 0 .001-49.148zm-429.414-128.752c-64.477-64.475-64.477-169.385 0-233.861s169.386-64.477 233.861 0 64.476 169.386 0 233.861-169.386 64.472-233.861 0zm412.442 160.932-17.645 17.645a10.765 10.765 0 0 1 -15.209 0l-92.638-92.637a10.819 10.819 0 0 1 0-15.208l17.646-17.647a10.766 10.766 0 0 1 15.209 0l92.638 92.638a10.766 10.766 0 0 1 -.001 15.209z" fill="#000000"  class=""></path></g></svg>
