<svg xmlns="http://www.w3.org/2000/svg" version="1.1" xmlns:xlink="http://www.w3.org/1999/xlink"  width="512" height="512" x="0" y="0" viewBox="0 0 512 512" style="enable-background:new 0 0 512 512" xml:space="preserve" class=""><g><path d="m443.3 0h-374.6a68.779 68.779 0 0 0 -68.7 68.7v374.6a68.778 68.778 0 0 0 68.7 68.7h374.6a68.776 68.776 0 0 0 68.7-68.7v-374.6a68.778 68.778 0 0 0 -68.7-68.7zm-102.95 286.341a126.327 126.327 0 0 1 41.2 79.58 24.32 24.32 0 0 1 -24.161 27.079h-202.779a24.322 24.322 0 0 1 -24.164-27.079 126.21 126.21 0 0 1 209.9-79.581zm17.279 82.55a1.216 1.216 0 0 1 -.1.1c-.034 0-.08.006-.142.006l-202.777.003a.185.185 0 0 1 -.237-.1 1.218 1.218 0 0 1 -.092-.113 1.256 1.256 0 0 1 .01-.139 102.369 102.369 0 0 1 203.417 0c.007.061.01.107.011.141-.02.025-.049.063-.09.106zm-101.629-118.251a65.82 65.82 0 1 1 65.82-65.819 65.894 65.894 0 0 1 -65.82 65.819zm0-107.64a41.821 41.821 0 1 1 -41.82 41.821 41.868 41.868 0 0 1 41.82-41.821z" fill-rule="evenodd" fill="#000000" data-original="#000000" class=""></path></g></svg>
