<svg width="21" height="20" viewBox="0 0 21 20" fill="black" xmlns="http://www.w3.org/2000/svg">
<path d="M7.05339 20H2.60894C1.38672 20 0.386719 19 0.386719 17.7778V2.22222C0.386719 1 1.38672 0 2.60894 0H7.05339C8.27561 0 9.27561 1 9.27561 2.22222V17.7778C9.27561 19 8.27561 20 7.05339 20ZM13.7201 20H18.1645C19.3867 20 20.3867 19 20.3867 17.7778V12.2222C20.3867 11 19.3867 10 18.1645 10H13.7201C12.4978 10 11.4978 11 11.4978 12.2222V17.7778C11.4978 19 12.4978 20 13.7201 20ZM20.3867 5.55556V2.22222C20.3867 1 19.3867 0 18.1645 0H13.7201C12.4978 0 11.4978 1 11.4978 2.22222V5.55556C11.4978 6.77778 12.4978 7.77778 13.7201 7.77778H18.1645C19.3867 7.77778 20.3867 6.77778 20.3867 5.55556Z"/>
</svg>
