<svg width="17" height="16" viewBox="0 0 17 16" fill="none" xmlns="http://www.w3.org/2000/svg">
<path d="M14.6209 3.7993H1.91181V3.29094L13.0958 2.39622V3.29094H14.6209V1.76585C14.6209 0.647453 13.715 -0.137458 12.6088 0.0201339L2.39983 1.47812C1.29262 1.63673 0.386719 2.6809 0.386719 3.7993V13.9665C0.386719 14.5059 0.600957 15.0231 0.982302 15.4044C1.36365 15.7858 1.88086 16 2.42017 16H14.6209C15.1602 16 15.6774 15.7858 16.0587 15.4044C16.4401 15.0231 16.6543 14.5059 16.6543 13.9665V5.83275C16.6543 5.29345 16.4401 4.77623 16.0587 4.39488C15.6774 4.01354 15.1602 3.7993 14.6209 3.7993ZM13.0958 10.9225C12.8954 10.9224 12.6971 10.8829 12.512 10.8062C12.3269 10.7294 12.1588 10.617 12.0172 10.4753C11.8756 10.3336 11.7632 10.1653 11.6866 9.98023C11.61 9.79511 11.5706 9.59672 11.5707 9.39637C11.5708 9.19603 11.6103 8.99766 11.687 8.81259C11.7637 8.62752 11.8762 8.45938 12.0179 8.31776C12.1596 8.17614 12.3278 8.06382 12.5129 7.98722C12.6981 7.91061 12.8965 7.87122 13.0968 7.87128C13.5014 7.87142 13.8894 8.03228 14.1754 8.31848C14.4614 8.60468 14.622 8.99277 14.6219 9.39739C14.6217 9.802 14.4609 10.19 14.1747 10.476C13.8885 10.762 13.5004 10.9226 13.0958 10.9225Z" fill="black"/>
</svg>
