<svg width="19" height="16" viewBox="0 0 19 16" fill="none" xmlns="http://www.w3.org/2000/svg">
<path fill-rule="evenodd" clip-rule="evenodd" d="M3.2534 -0.000244141C2.54615 -0.000244141 1.86788 0.280708 1.36778 0.780805C0.867683 1.2809 0.586731 1.95918 0.586731 2.66642V13.3331C0.586731 14.0403 0.867683 14.7186 1.36778 15.2187C1.86788 15.7188 2.54615 15.9998 3.2534 15.9998H15.6978C16.1361 15.9998 16.7743 15.8753 17.3281 15.4771C17.929 15.0442 18.3645 14.3331 18.3645 13.3331V7.10909C18.3644 6.75901 18.2953 6.41239 18.1612 6.08901C18.0272 5.76563 17.8307 5.47182 17.5831 5.22436C17.3355 4.9769 17.0415 4.78064 16.7181 4.64678C16.3946 4.51292 16.0479 4.44408 15.6978 4.4442V11.1109C15.6978 11.2287 15.651 11.3418 15.5677 11.4251C15.4843 11.5085 15.3713 11.5553 15.2534 11.5553C15.1355 11.5553 15.0225 11.5085 14.9391 11.4251C14.8558 11.3418 14.809 11.2287 14.809 11.1109V2.66642C14.809 1.95918 14.528 1.2809 14.0279 0.780805C13.5278 0.280708 12.8495 -0.000244141 12.1423 -0.000244141H3.2534ZM5.03118 3.55531C4.79543 3.55531 4.56933 3.64896 4.40264 3.81566C4.23594 3.98236 4.14229 4.20845 4.14229 4.4442V7.99976C4.14229 8.2355 4.23594 8.4616 4.40264 8.62829C4.56933 8.79499 4.79543 8.88865 5.03118 8.88865H10.3645C10.6003 8.88865 10.8263 8.79499 10.993 8.62829C11.1597 8.4616 11.2534 8.2355 11.2534 7.99976V4.4442C11.2534 4.20845 11.1597 3.98236 10.993 3.81566C10.8263 3.64896 10.6003 3.55531 10.3645 3.55531H5.03118ZM5.03118 10.6664C4.79543 10.6664 4.56933 10.7601 4.40264 10.9268C4.23594 11.0935 4.14229 11.3196 4.14229 11.5553C4.14229 11.7911 4.23594 12.0172 4.40264 12.1839C4.56933 12.3506 4.79543 12.4442 5.03118 12.4442H10.3645C10.6003 12.4442 10.8263 12.3506 10.993 12.1839C11.1597 12.0172 11.2534 11.7911 11.2534 11.5553C11.2534 11.3196 11.1597 11.0935 10.993 10.9268C10.8263 10.7601 10.6003 10.6664 10.3645 10.6664H5.03118Z" fill="black"/>
</svg>
