<svg width="23" height="16" viewBox="0 0 23 16" fill="none" xmlns="http://www.w3.org/2000/svg">
<path d="M4.66049 2.28547H0.980486C0.557629 2.28547 0.134772 2.65118 0.191915 3.24547L1.97477 14.6626C1.97477 14.6626 4.08906 6.25118 4.50049 4.22833C4.6262 3.62261 5.19763 3.42833 5.62049 3.42833H11.5176C11.5176 3.42833 10.7176 1.05118 10.6376 0.788327C10.5005 0.28547 10.2491 -0.000244141 9.7462 -0.000244141H5.96334C5.55191 -0.000244141 5.16334 0.262613 5.04906 0.731185C4.9462 1.18833 4.66049 2.28547 4.66049 2.28547ZM10.2376 2.28547H5.6662C5.6662 2.28547 6.1462 1.14261 6.66049 1.14261H9.09477C9.64334 1.14261 10.2376 2.28547 10.2376 2.28547ZM3.14049 15.1426C2.7862 15.6798 2.27191 15.9998 1.70049 15.9998H19.6776C20.2948 15.9998 20.7291 15.6455 20.8548 15.0512C21.3576 12.5483 22.7748 5.40547 22.7748 5.40547C22.8548 4.83404 22.4319 4.57118 22.0662 4.57118H18.3748V2.89118C18.3748 2.70833 18.0776 2.28547 17.6205 2.28547H13.3233C12.7291 2.28547 12.3291 2.94833 12.3291 2.94833L11.5176 4.57118H6.47763C6.11192 4.57118 5.75763 4.78833 5.68906 5.14261C5.68906 5.14261 3.87191 12.7998 3.72334 13.5198C3.64334 13.9426 3.47191 14.6512 3.14049 15.1426ZM17.6662 4.57118H12.6605C12.6605 4.57118 13.3233 3.42833 13.9519 3.42833H16.5691C17.3805 3.42833 17.6662 4.57118 17.6662 4.57118Z" fill="black"/>
</svg>
